#!OML:ASF F:\twosubjects\two\Thursday\Session 1\Rory.ASF
:FULLY-SPECIFIED
:DEGREES
213
root 5.78682 11.2148 10.5769 160.157 -25.9247 204.639
lowerback 42.7267 16.1609 -20.741
upperback 17.2073 3.44017 -5.09587
thorax 0.37744 -2.15857 2.32673
lowerneck -2.72209 -19.0231 -16.7166
upperneck -6.20538 -28.0583 39.4606
head 7.73207 -15.4789 11.6181
rclavicle -7.95139e-014 -1.43125e-013
rhumerus -27.1012 -23.7592 -58.1254
rradius 145.149
rwrist 14.8721
rhand -45.6171 55.2076
rfingers 7.12502
rthumb -18.3774 26.0557
lclavicle -7.95139e-014 -1.43125e-013
lhumerus 15.9193 17.1453 32.7108
lradius 101.162
lwrist -5.33241
lhand -15.0488 26.3764
lfingers 7.12502
lthumb 11.1177 56.0619
rfemur -40.3685 -1.75638 -2.82042
rtibia 72.5533
rfoot -2.47739 -13.0826
rtoes -19.6564
lfemur -87.3086 17.8987 -6.60701
ltibia 90.681
lfoot 9.38768 -9.95375
ltoes 32.3424
214
root 5.78102 11.2207 10.5729 159.957 -26.1202 204.507
lowerback 42.3558 16.4294 -21.2723
upperback 17.3483 3.6555 -4.93995
thorax 0.597262 -2.13515 2.62502
lowerneck -2.52674 -19.1931 -16.6919
upperneck -6.03082 -28.3023 39.2871
head 7.77169 -15.5792 11.4972
rclavicle -5.40694e-014 -1.01778e-013
rhumerus -26.9447 -23.6048 -58.8357
rradius 144.952
rwrist 15.1132
rhand -46.0476 54.8783
rfingers 7.12502
rthumb -18.7915 25.7659
lclavicle -5.40694e-014 -1.01778e-013
lhumerus 14.5258 17.9145 33.1196
lradius 100.678
lwrist -6.51018
lhand -14.7894 26.9769
lfingers 7.12502
lthumb 11.3679 56.6488
rfemur -39.9105 -1.28331 -3.33857
rtibia 72.5115
rfoot -2.92269 -13.6731
rtoes -13.5158
lfemur -87.1467 17.7842 -6.99554
ltibia 90.7558
lfoot 9.71427 -9.3358
ltoes 32.9047
215
root 5.78677 11.2083 10.5724 159.862 -26.2882 204.525
lowerback 42.1878 16.6124 -21.6137
upperback 17.2023 3.8387 -4.89146
thorax 0.464245 -2.03268 2.74841
lowerneck -1.56132 -19.3822 -16.3757
upperneck -6.25993 -28.5064 39.1058
head 7.48391 -15.7848 11.4386
rclavicle -7.95139e-014 -1.59028e-015
rhumerus -27.3645 -23.4625 -59.6347
rradius 145.249
rwrist 14.8533
rhand -45.747 54.0128
rfingers 7.12502
rthumb -18.5024 24.8727
lclavicle -7.95139e-014 -1.59028e-015
lhumerus 13.1353 18.317 33.2915
lradius 100.427
lwrist -7.14213
lhand -14.4403 28.2395
lfingers 7.12502
lthumb 11.7045 57.8926
rfemur -39.7634 -0.78225 -3.77854
rtibia 72.4654
rfoot -2.34436 -13.538
rtoes -15.7224
lfemur -87.7066 18.1745 -7.4718
ltibia 90.994
lfoot 10.6307 -8.40953
ltoes 37.1025
216
root 5.8021 11.221 10.6196 159.797 -26.4973 204.385
lowerback 42.7355 16.6653 -21.9328
upperback 16.6624 3.61719 -5.07845
thorax -0.155956 -2.03036 2.70877
lowerneck 0.0649022 -19.5811 -15.9652
upperneck -6.56846 -28.6367 38.534
head 6.92291 -15.9983 11.3522
rclavicle 0 -7.4743e-014
rhumerus -27.9007 -22.8816 -60.8031
rradius 145.537
rwrist 14.7929
rhand -45.775 54.4976
rfingers 7.12502
rthumb -18.5293 25.3601
lclavicle 0 -7.4743e-014
lhumerus 11.3396 18.8504 33.2181
lradius 99.8535
lwrist -7.87598
lhand -14.1179 29.1764
lfingers 7.12502
lthumb 12.0155 58.8115
rfemur -39.5288 -0.075425 -4.3781
rtibia 72.0867
rfoot -0.803269 -12.7154
rtoes -20.308
lfemur -88.1492 18.0751 -7.49194
ltibia 91.0996
lfoot 11.7365 -6.91265
ltoes 41.8585
217
root 5.75851 11.2237 10.5906 159.755 -27.0367 204.354
lowerback 41.7313 16.7099 -22.5391
upperback 17.016 3.85511 -4.75174
thorax 0.387701 -2.02401 3.26396
lowerneck 0.333491 -19.5171 -16.7873
upperneck -6.29702 -28.7418 39.1386
head 7.27704 -16.0521 11.665
rclavicle -2.54444e-014 -1.81292e-013
rhumerus -27.9029 -22.8027 -61.3559
rradius 145.751
rwrist 14.4435
rhand -45.6335 53.8486
rfingers 7.12502
rthumb -18.3932 24.6982
lclavicle -2.54444e-014 -1.81292e-013
lhumerus 9.9317 19.7964 34.1618
lradius 99.0005
lwrist -8.81128
lhand -14.9611 29.2837
lfingers 7.12502
lthumb 11.2023 58.9647
rfemur -38.8586 0.285597 -5.0877
rtibia 71.9399
rfoot -0.979805 -11.6642
rtoes -19.3477
lfemur -88.4158 17.7034 -7.86062
ltibia 91.4448
lfoot 11.6974 -6.08243
ltoes 43.0451
218
root 5.73664 11.2853 10.6313 159.617 -27.2409 204.49
lowerback 41.3495 16.9479 -22.7323
upperback 17.0912 4.24349 -4.56695
thorax 0.485562 -1.86623 3.41764
lowerneck 0.905183 -19.6825 -16.8482
upperneck -6.45946 -29.0079 39.463
head 7.29202 -16.2641 11.7688
rclavicle 6.04305e-014 -1.57437e-013
rhumerus -28.2174 -23.1071 -62.0045
rradius 145.648
rwrist 15.114
rhand -46.6526 54.6591
rfingers 7.12502
rthumb -19.3733 25.6042
lclavicle 6.04305e-014 -1.57437e-013
lhumerus 8.74797 20.3065 34.8563
lradius 98.3716
lwrist -9.21271
lhand -16.4151 29.4954
lfingers 7.12502
lthumb 9.79965 59.2474
rfemur -38.3335 0.730585 -5.26249
rtibia 71.4125
rfoot -0.772125 -10.6373
rtoes -19.2894
lfemur -87.8076 16.7964 -7.40991
ltibia 91.2671
lfoot 10.9695 -4.15778
ltoes 44.0219
219
root 5.74036 11.2191 10.5663 159.536 -27.3527 204.442
lowerback 41.0805 17.0285 -23.4214
upperback 17.3141 4.13698 -4.3133
thorax 0.817529 -2.03868 3.98107
lowerneck 0.22144 -19.8864 -17.4605
upperneck -6.23177 -29.2801 39.2679
head 7.61982 -16.2827 11.5906
rclavicle 1.43125e-013 1.06549e-013
rhumerus -26.9145 -22.1538 -63.3565
rradius 145.636
rwrist 15.1602
rhand -46.5905 54.1077
rfingers 7.12502
rthumb -19.3135 25.0468
lclavicle 1.43125e-013 1.06549e-013
lhumerus 6.83852 22.2652 35.5339
lradius 97.9152
lwrist -9.50764
lhand -17.399 30.0403
lfingers 7.12502
lthumb 8.8503 59.8347
rfemur -38.4378 0.9056 -5.73843
rtibia 71.5897
rfoot -0.368274 -8.90884
rtoes -19.4104
lfemur -88.8511 18.3585 -8.83759
ltibia 91.8155
lfoot 11.0836 -4.21524
ltoes 44.0203
220
root 5.71761 11.2689 10.5677 159.352 -27.2775 204.884
lowerback 40.2849 17.1823 -23.3899
upperback 17.6096 4.63513 -4.22571
thorax 1.19879 -1.85582 3.94816
lowerneck 0.0758856 -20.2777 -17.1804
upperneck -6.11168 -29.7401 38.9138
head 7.67261 -16.4539 11.2574
rclavicle -8.26944e-014 -3.81667e-014
rhumerus -26.9523 -22.1927 -64.5642
rradius 146.07
rwrist 14.7054
rhand -46.3341 53.7764
rfingers 7.12502
rthumb -19.067 24.691
lclavicle -8.26944e-014 -3.81667e-014
lhumerus 6.25153 23.1449 36.3851
lradius 97.3833
lwrist -9.68483
lhand -18.091 31.3596
lfingers 7.12502
lthumb 8.18247 61.1812
rfemur -38.1904 1.40677 -5.47721
rtibia 71.2465
rfoot -1.00986 -7.88468
rtoes -15.7767
lfemur -88.6 18.5263 -8.70311
ltibia 91.7378
lfoot 10.3508 -3.31063
ltoes 44.5517
221
root 5.71125 11.2183 10.603 159.164 -27.5682 206.036
lowerback 40.807 16.3585 -21.6668
upperback 17.5062 4.28147 -4.47978
thorax 0.955142 -1.81441 3.18187
lowerneck -1.77524 -20.127 -18.072
upperneck -4.46854 -30.0927 39.7618
head 9.01833 -16.2992 11.3448
rclavicle 9.85972e-014 1.22451e-013
rhumerus -27.0055 -22.1288 -65.5591
rradius 146.257
rwrist 14.5846
rhand -46.4933 55.0041
rfingers 7.12502
rthumb -19.2201 25.9339
lclavicle 9.85972e-014 1.22451e-013
lhumerus 5.1955 24.0055 36.9598
lradius 96.9283
lwrist -10.0188
lhand -18.8534 33.0894
lfingers 7.12502
lthumb 7.44668 62.9383
rfemur -38.5714 0.829449 -5.01764
rtibia 71.3039
rfoot -1.64974 -7.08135
rtoes -14.7573
lfemur -89.7745 18.3649 -8.79443
ltibia 91.8011
lfoot 10.4133 -2.81588
ltoes 45.0436
222
root 5.71212 11.202 10.616 159.223 -27.7796 206.2
lowerback 40.9155 16.2974 -21.5934
upperback 17.392 4.25285 -4.46703
thorax 0.809629 -1.7842 3.1773
lowerneck -1.76017 -20.1728 -18.3718
upperneck -4.29167 -30.2112 39.8588
head 9.19091 -16.3299 11.3821
rclavicle 1.52667e-013 1.7016e-013
rhumerus -26.8872 -21.643 -66.3383
rradius 146.514
rwrist 14.1898
rhand -46.3316 55.3838
rfingers 7.12502
rthumb -19.0646 26.2982
lclavicle 1.52667e-013 1.7016e-013
lhumerus 3.77312 25.1566 37.5125
lradius 96.4212
lwrist -10.7213
lhand -19.9435 33.7632
lfingers 7.12502
lthumb 6.3944 63.6467
rfemur -38.7939 0.44193 -5.20017
rtibia 71.2341
rfoot -2.00153 -7.00298
rtoes -16.1833
lfemur -90.2462 18.6148 -9.59274
ltibia 91.7173
lfoot 10.3649 -3.35925
ltoes 44.1168
223
root 5.71443 11.2115 10.6211 159.398 -27.929 205.846
lowerback 40.787 16.6633 -22.3167
upperback 17.3078 4.45215 -4.30904
thorax 0.747188 -1.73413 3.5372
lowerneck -0.167505 -20.4889 -18.6527
upperneck -5.31006 -30.2752 39.4251
head 8.52301 -16.5653 11.4014
rclavicle -1.97194e-013 -2.83069e-013
rhumerus -26.8133 -20.7579 -66.9792
rradius 146.617
rwrist 14.7614
rhand -47.1948 54.472
rfingers 7.12502
rthumb -19.8946 25.4703
lclavicle -1.97194e-013 -2.83069e-013
lhumerus 2.39643 26.2749 38.0885
lradius 95.772
lwrist -11.2687
lhand -21.3608 34.0066
lfingers 7.12502
lthumb 5.02595 63.927
rfemur -38.909 0.360138 -5.70849
rtibia 71.2113
rfoot -2.82154 -7.57597
rtoes -15.9788
lfemur -90.2239 18.9926 -10.6516
ltibia 91.5946
lfoot 9.77624 -4.22122
ltoes 42.7772
224
root 5.70872 11.2127 10.6252 159.331 -28.0023 206.096
lowerback 40.7818 16.7884 -22.3914
upperback 17.3198 4.63337 -4.00517
thorax 0.716609 -1.66415 3.82577
lowerneck -1.88705 -20.1629 -20.5983
upperneck -4.16421 -30.286 40.6155
head 9.91353 -16.3005 11.9104
rclavicle 3.49861e-014 7.95139e-014
rhumerus -26.4302 -19.9701 -67.2338
rradius 146.724
rwrist 14.7329
rhand -47.5091 54.9005
rfingers 7.12502
rthumb -20.1967 25.9305
lclavicle 3.49861e-014 7.95139e-014
lhumerus 1.15709 27.3643 38.9129
lradius 94.9213
lwrist -11.7424
lhand -22.9997 35.0415
lfingers 7.12502
lthumb 3.44334 64.9934
rfemur -38.9689 0.453833 -5.67163
rtibia 71.1646
rfoot -3.99357 -8.52971
rtoes -14.1993
lfemur -90.3986 19.3347 -11.2274
ltibia 91.5413
lfoot 9.291 -4.44715
ltoes 42.3575
225
root 5.703 11.195 10.6333 159.001 -28.0866 206.68
lowerback 41.0889 16.7132 -21.8778
upperback 17.3756 4.6914 -3.78877
thorax 0.668926 -1.61782 3.83226
lowerneck 2.14937 -18.7404 -19.1178
upperneck -8.42806 -27.8534 42.3052
head 7.26052 -16.2007 13.6507
rclavicle -9.85972e-014 -8.5875e-014
rhumerus -25.6365 -19.0548 -67.6583
rradius 146.722
rwrist 14.5114
rhand -47.4994 54.623
rfingers 7.12502
rthumb -20.1874 25.6519
lclavicle -9.85972e-014 -8.5875e-014
lhumerus -0.00850499 28.5186 39.5954
lradius 93.9024
lwrist -12.436
lhand -25.2466 37.308
lfingers 7.12502
lthumb 1.2734 67.2839
rfemur -38.9835 -0.314441 -5.34263
rtibia 71.1498
rfoot -4.87392 -9.14372
rtoes -12.7645
lfemur -90.6926 19.6535 -11.6238
ltibia 91.583
lfoot 9.59339 -4.17875
ltoes 42.513
226
root 5.70319 11.1681 10.6328 158.77 -28.1485 206.843
lowerback 41.4273 16.7474 -21.5599
upperback 17.3915 4.69743 -3.91282
thorax 0.623222 -1.59963 3.55017
lowerneck -1.19265 -19.8841 -21.0151
upperneck -4.80856 -29.8076 41.0036
head 9.61475 -16.2143 12.3604
rclavicle 1.43125e-013 1.7016e-013
rhumerus -24.8795 -17.9213 -68.6393
rradius 146.714
rwrist 14.4047
rhand -47.2977 53.5477
rfingers 7.12502
rthumb -19.9935 24.5563
lclavicle 1.43125e-013 1.7016e-013
lhumerus -1.01747 29.6928 39.7931
lradius 92.6578
lwrist -13.4077
lhand -26.8425 39.7597
lfingers 7.12502
lthumb -0.26794 69.7392
rfemur -38.9578 -0.841222 -5.38044
rtibia 71.1931
rfoot -5.55235 -10.2055
rtoes -14.5837
lfemur -90.8848 20.0987 -12.2881
ltibia 91.7504
lfoot 10.1118 -4.22694
ltoes 42.5922
